HIERARCHY
ROOT Hips
{
	OFFSET	0.00	0.00	0.00
	CHANNELS 6 Xposition Yposition Zposition Zrotation Xrotation Yrotation
	JOINT LeftUpLeg
	{
		OFFSET	 0.126116	-0.065224	 0.014019
		CHANNELS 3 Zrotation Xrotation Yrotation
		JOINT LeftLeg
		{
			OFFSET	 0.000000	 0.569914	 0.000000
			CHANNELS 3 Zrotation Xrotation Yrotation
			JOINT LeftFoot
			{
				OFFSET	 0.000000	 0.544423	 0.000000
				CHANNELS 3 Zrotation Xrotation Yrotation
				JOINT LeftToeBase
				{
					OFFSET	 0.000000	 0.207117	 0.000000
					CHANNELS 3 Zrotation Xrotation Yrotation
					End Site
					{
						OFFSET	 0.000000	 0.207117	 0.000000
					}
				}
			}
		}
	}
	JOINT RightUpLeg
	{
		OFFSET	-0.124023	-0.065224	 0.008373
		CHANNELS 3 Zrotation Xrotation Yrotation
		JOINT RightLeg
		{
			OFFSET	 0.000000	 0.570047	 0.000000
			CHANNELS 3 Zrotation Xrotation Yrotation
			JOINT RightFoot
			{
				OFFSET	 0.000000	 0.544354	 0.000000
				CHANNELS 3 Zrotation Xrotation Yrotation
				JOINT RightToeBase
				{
					OFFSET	 0.000000	 0.207540	 0.000000
					CHANNELS 3 Zrotation Xrotation Yrotation
					End Site
					{
						OFFSET	 0.000000	 0.207540	 0.000000
					}
				}
			}
		}
	}
	JOINT Spine
	{
		OFFSET	 0.000184	 0.117403	 0.007763
		CHANNELS 3 Zrotation Xrotation Yrotation
		JOINT Spine1
		{
			OFFSET	 0.000000	 0.137269	 0.000000
			CHANNELS 3 Zrotation Xrotation Yrotation
			JOINT Spine2
			{
				OFFSET	 0.000000	 0.156879	 0.000000
				CHANNELS 3 Zrotation Xrotation Yrotation
				JOINT LeftShoulder
				{
					OFFSET	 0.080501	 0.160143	 0.002496
					CHANNELS 3 Zrotation Xrotation Yrotation
					JOINT LeftArm
					{
						OFFSET	 0.000000	 0.164363	 0.000000
						CHANNELS 3 Zrotation Xrotation Yrotation
						JOINT LeftForeArm
						{
							OFFSET	 0.000000	 0.364576	 0.000000
							CHANNELS 3 Zrotation Xrotation Yrotation
							JOINT LeftHand
							{
								OFFSET	 0.000000	 0.360812	 0.000000
								CHANNELS 3 Zrotation Xrotation Yrotation
								JOINT LeftHandIndex1
								{
									OFFSET	 0.000000	 0.086006	 0.000000
									CHANNELS 3 Zrotation Xrotation Yrotation
									JOINT LeftHandIndex2
									{
										OFFSET	 0.000000	 0.047237	 0.000000
										CHANNELS 3 Zrotation Xrotation Yrotation
										JOINT LeftHandIndex3
										{
											OFFSET	-0.004284	 0.038165	 0.000551
											CHANNELS 3 Zrotation Xrotation Yrotation
											End Site
											{
												OFFSET	-0.004284	 0.038165	 0.000551
											}
										}
									}
								}
							}
						}
					}
				}
				JOINT Neck
				{
					OFFSET	 0.000000	 0.176489	 0.000000
					CHANNELS 3 Zrotation Xrotation Yrotation
					JOINT Head
					{
						OFFSET	 0.000000	 0.077941	 0.001747
						CHANNELS 3 Zrotation Xrotation Yrotation
						End Site
						{
							OFFSET	 0.000000	 0.077941	 0.001747
						}
					}
				}
				JOINT RightShoulder
				{
					OFFSET	-0.080363	 0.159706	-0.000306
					CHANNELS 3 Zrotation Xrotation Yrotation
					JOINT RightArm
					{
						OFFSET	 0.000000	 0.164196	 0.000000
						CHANNELS 3 Zrotation Xrotation Yrotation
						JOINT RightForeArm
						{
							OFFSET	 0.000000	 0.365611	 0.000000
							CHANNELS 3 Zrotation Xrotation Yrotation
							JOINT RightHand
							{
								OFFSET	 0.000000	 0.360648	 0.000000
								CHANNELS 3 Zrotation Xrotation Yrotation
								JOINT RightHandIndex1
								{
									OFFSET	 0.000000	 0.069977	 0.000000
									CHANNELS 3 Zrotation Xrotation Yrotation
									JOINT RightHandIndex2
									{
										OFFSET	 0.000000	 0.052305	 0.000000
										CHANNELS 3 Zrotation Xrotation Yrotation
										JOINT RightHandIndex3
										{
											OFFSET	 0.009002	 0.042196	 0.000782
											CHANNELS 3 Zrotation Xrotation Yrotation
											End Site
											{
												OFFSET	 0.009002	 0.042196	 0.000782
											}
										}
									}
								}
							}
						}
					}
				}
			}
		}
	}
}
MOTION
Frames:    9
Frame Time: 0.03333334
-0.016970	 1.255550	 0.115160	 4.613603	 0.270234	 173.987000	-170.765600	 16.004340	 7.597644	 2.435215	-24.742410	 1.110929	 46.042150	 46.674690	-62.944110	 4.912823	 28.009650	-6.307258	-172.813500	 4.947859	-1.763715	-1.730201	-19.307000	 1.883839	-57.217460	 58.357720	 63.745460	-0.375630	 31.170600	 1.632183	 1.259852	 4.070034	-7.253501	 9.486550	 7.667005	-4.087853	-8.055810	-5.478275	 14.238760	-112.571700	 3.138815	 88.315600	-6.486570	 49.898980	 31.621820	 21.718730	-1.117808	 0.782726	-4.981952	-3.813644	-69.303850	-8.024219	 12.503670	-5.831492	-7.228708	 12.665410	 2.804202	 4.963066	-4.014628	-0.346955	 1.527099	-13.928290	 1.348552	-1.994412	 8.888279	-24.768250	 109.136300	 0.666503	-88.591040	-11.836490	 64.080820	 11.405910	-5.080768	-0.469550	 41.399940	-11.111050	 9.550325	-77.744080	 2.020899	 8.323099	 8.960809	 15.202860	 20.243790	-6.342771	-8.239867	-2.131385	 0.447455
-0.016958	 1.255457	 0.115165	 4.596947	 0.244176	 173.988500	-170.785400	 16.048890	 7.609638	 2.438881	-24.775280	 1.116622	 46.062330	 46.672180	-62.975990	 4.912823	 28.009660	-6.307256	-172.824400	 5.019055	-1.757051	-1.738518	-19.393050	 1.870747	-57.273510	 58.379520	 63.815370	-0.376487	 31.171660	 1.633034	 1.260994	 4.057930	-7.271896	 9.382666	 7.572293	-4.070024	-7.933122	-5.373885	 14.257200	-112.566800	 3.132720	 88.314770	-5.754592	 50.238140	 31.067610	 20.637020	-1.064639	 0.761886	-4.613244	-3.921526	-69.269010	-8.018602	 12.508280	-5.832881	-7.228734	 12.664340	 2.804056	 4.963066	-4.014628	-0.346955	 1.522067	-13.920640	 1.351123	-1.988671	 8.927244	-24.778920	 109.130200	 0.671148	-88.593400	-11.845270	 64.045440	 11.435520	-5.074419	-0.468908	 41.384720	-10.928570	 9.561833	-77.806860	 2.016064	 8.310058	 8.960697	 15.202880	 20.246680	-6.343562	-8.239867	-2.131385	 0.447455
-0.016953	 1.255346	 0.115156	 4.575631	 0.213435	 173.998600	-170.813400	 16.103350	 7.630165	 2.443352	-24.815040	 1.126212	 46.089070	 46.668830	-63.014350	 4.912824	 28.009660	-6.307254	-172.839900	 5.102803	-1.742536	-1.748384	-19.494640	 1.848275	-57.349320	 58.398510	 63.909510	-0.378075	 31.173590	 1.634608	 1.260940	 4.046038	-7.303116	 9.272674	 7.447973	-4.057643	-7.797105	-5.249084	 14.280420	-112.557800	 3.121393	 88.313210	-4.952130	 50.613990	 30.447520	 19.454250	-1.006093	 0.740055	-4.222741	-4.042020	-69.211760	-8.008202	 12.516810	-5.835454	-7.228780	 12.662360	 2.803786	 4.963066	-4.014628	-0.346955	 1.512749	-13.906480	 1.355884	-1.980875	 8.985111	-24.800980	 109.118900	 0.679776	-88.597770	-11.861670	 64.008220	 11.488190	-5.067090	-0.468233	 41.357200	-10.700050	 9.566493	-77.912890	 2.007112	 8.285912	 8.960485	 15.202920	 20.252040	-6.345027	-8.239867	-2.131385	 0.447455
-0.016957	 1.255216	 0.115129	 4.549645	 0.177669	 174.016600	-170.849700	 16.167360	 7.659725	 2.448493	-24.861040	 1.139646	 46.123170	 46.663640	-63.060320	 4.912825	 28.009670	-6.307250	-172.860200	 5.199256	-1.719962	-1.759733	-19.611560	 1.816439	-57.444200	 58.415500	 64.026750	-0.380412	 31.176450	 1.636926	 1.259820	 4.032948	-7.346937	 9.157068	 7.294582	-4.050978	-7.648271	-5.104476	 14.308250	-112.544500	 3.104768	 88.310930	-4.069535	 51.027450	 29.752240	 18.159560	-0.941452	 0.717500	-3.804374	-4.175325	-69.131370	-7.992895	 12.529360	-5.839244	-7.228849	 12.659450	 2.803388	 4.963066	-4.014628	-0.346955	 1.499035	-13.885640	 1.362895	-1.970947	 9.062188	-24.834750	 109.102300	 0.692461	-88.604230	-11.883640	 63.969590	 11.562170	-5.059792	-0.467586	 41.316490	-10.424990	 9.562762	-78.062380	 1.993938	 8.250376	 8.960168	 15.202970	 20.259920	-6.347184	-8.239867	-2.131385	 0.447455
-0.016965	 1.255081	 0.115086	 4.518211	 0.137718	 174.043800	-170.894500	 16.238070	 7.697118	 2.453760	-24.907950	 1.156317	 46.160950	 46.656580	-63.108260	 4.912826	 28.009670	-6.307244	-172.886300	 5.304799	-1.690335	-1.772036	-19.738190	 1.776579	-57.555400	 58.427920	 64.163940	-0.383409	 31.180110	 1.639898	 1.255997	 4.019847	-7.402454	 9.039920	 7.113760	-4.050851	-7.492026	-4.943418	 14.339450	-112.527500	 3.083447	 88.308000	-3.113436	 51.468610	 28.986040	 16.768630	-0.871492	 0.694773	-3.357782	-4.317769	-69.030440	-7.973262	 12.545450	-5.844109	-7.228940	 12.655710	 2.802879	 4.963066	-4.014628	-0.346955	 1.481446	-13.858920	 1.371892	-1.959184	 9.155597	-24.878950	 109.081000	 0.708728	-88.612470	-11.908560	 63.932140	 11.653270	-5.054203	-0.467049	 41.264240	-10.112760	 9.549232	-78.249870	 1.977045	 8.204804	 8.959748	 15.203040	 20.270030	-6.349952	-8.239867	-2.131385	 0.447455
-0.016939	 1.254999	 0.115034	 4.464157	 0.082465	 174.089800	-170.959700	 16.309600	 7.744103	 2.453979	-24.909990	 1.174653	 46.183220	 46.633240	-63.127760	 4.912827	 28.009680	-6.307239	-172.933300	 5.426926	-1.653421	-1.784069	-19.861620	 1.727498	-57.682360	 58.423950	 64.319980	-0.387214	 31.184760	 1.643672	 1.234304	 3.994524	-7.477131	 8.904143	 6.891136	-4.062430	-7.315367	-4.755521	 14.375470	-112.505800	 3.056351	 88.304290	-1.976357	 51.965580	 28.060650	 15.130150	-0.788433	 0.669979	-2.817954	-4.479101	-68.904950	-7.948336	 12.565870	-5.850294	-7.229053	 12.650980	 2.802231	 4.963066	-4.014628	-0.346955	 1.459114	-13.825010	 1.383324	-1.944924	 9.269856	-24.935850	 109.053900	 0.729398	-88.622960	-11.942930	 63.904160	 11.770330	-5.047046	-0.466440	 41.198190	-9.750389	 9.523879	-78.486850	 1.955602	 8.146953	 8.959197	 15.203130	 20.282870	-6.353464	-8.239867	-2.131385	 0.447455
-0.016924	 1.254905	 0.114959	 4.405656	 0.024648	 174.143600	-171.033300	 16.387400	 7.799237	 2.454848	-24.917590	 1.196353	 46.212010	 46.609390	-63.153370	 4.912828	 28.009690	-6.307231	-172.985600	 5.556772	-1.609235	-1.797232	-19.996450	 1.670731	-57.825580	 58.417320	 64.496030	-0.391680	 31.190220	 1.648100	 1.211267	 3.970979	-7.563527	 8.767907	 6.638103	-4.080971	-7.131635	-4.549513	 14.414430	-112.480500	 3.024563	 88.299960	-0.677787	 52.507110	 26.991590	 13.290300	-0.694395	 0.645058	-2.197537	-4.653951	-68.760230	-7.919083	 12.589830	-5.857562	-7.229186	 12.645410	 2.801472	 4.963066	-4.014628	-0.346955	 1.432907	-13.785220	 1.396753	-1.928629	 9.400421	-25.003300	 109.022200	 0.753640	-88.635220	-11.981210	 63.876260	 11.904860	-5.040514	-0.465773	 41.120340	-9.349735	 9.486459	-78.762260	 1.930446	 8.079073	 8.958521	 15.203230	 20.297920	-6.357584	-8.239867	-2.131385	 0.447455
-0.016918	 1.254794	 0.114854	 4.341493	-0.038181	 174.205600	-171.116900	 16.474100	 7.863501	 2.456399	-24.931480	 1.221629	 46.248680	 46.584560	-63.186820	 4.912830	 28.009700	-6.307222	-173.044300	 5.698233	-1.557096	-1.811837	-20.145930	 1.605687	-57.987420	 58.409180	 64.694920	-0.396874	 31.196560	 1.653251	 1.186599	 3.947615	-7.662954	 8.629805	 6.346972	-4.106778	-6.938334	-4.320086	 14.456680	-112.451000	 2.987600	 88.294930	 0.896707	 53.118410	 25.683290	 11.107420	-0.581924	 0.619423	-1.429945	-4.849314	-68.593680	-7.885056	 12.617700	-5.866033	-7.229341	 12.638940	 2.800589	 4.963066	-4.014628	-0.346955	 1.402421	-13.738950	 1.412392	-1.909923	 9.549283	-25.082410	 108.985400	 0.781857	-88.649470	-12.023570	 63.847970	 12.058440	-5.033722	-0.465176	 41.030090	-8.904071	 9.435198	-79.081280	 1.901191	 8.000126	 8.957697	 15.203350	 20.315440	-6.362379	-8.239867	-2.131385	 0.447455
-0.016925	 1.254666	 0.114717	 4.271788	-0.104635	 174.276300	-171.210800	 16.568640	 7.936922	 2.458760	-24.952540	 1.250466	 46.293290	 46.559950	-63.227770	 4.912833	 28.009710	-6.307213	-173.109400	 5.849430	-1.496968	-1.827868	-20.309670	 1.532735	-58.168140	 58.399010	 64.917300	-0.402785	 31.203780	 1.659114	 1.160251	 3.926354	-7.775645	 8.491616	 6.015765	-4.140650	-6.736816	-4.066886	 14.501750	-112.417400	 2.945535	 88.289230	 2.969526	 53.834310	 23.951250	 8.323713	-0.437256	 0.593120	-0.384976	-5.073217	-68.405670	-7.846325	 12.649400	-5.875693	-7.229516	 12.631580	 2.799584	 4.963066	-4.014628	-0.346955	 1.367721	-13.686300	 1.430215	-1.888718	 9.716044	-25.173060	 108.943400	 0.813952	-88.665630	-12.068370	 63.819570	 12.229120	-5.028205	-0.464629	 40.927410	-8.413459	 9.367599	-79.442890	 1.867907	 7.910290	 8.956711	 15.203490	 20.335360	-6.367834	-8.239867	-2.131385	 0.447455
